<?xml version="1.0" encoding="UTF-8"?>
<!DOCTYPE svg PUBLIC "-//W3C//DTD SVG 1.0//EN" "http://www.w3.org/TR/2001/REC-SVG-20010904/DTD/svg10.dtd">
<!-- Creator: CorelDRAW -->
<svg xmlns="http://www.w3.org/2000/svg" xml:space="preserve" width="68.3498mm" height="68.3498mm" version="1.0" style="shape-rendering:geometricPrecision; text-rendering:geometricPrecision; image-rendering:optimizeQuality; fill-rule:evenodd; clip-rule:evenodd"
viewBox="0 0 6827.13 6827.13"
 xmlns:xlink="http://www.w3.org/1999/xlink"
 xmlns:xodm="http://www.corel.com/coreldraw/odm/2003">
 <defs>
  <style type="text/css">
   <![CDATA[
    .fil0 {fill:black}
    .fil1 {fill:white}
   ]]>
  </style>
 </defs>
 <g id="Camada_x0020_1">
  <metadata id="CorelCorpID_0Corel-Layer"/>
  <path class="fil0" d="M3413.43 0c1885.37,0 3413.69,1528.33 3413.69,3413.43 0,1885.37 -1528.33,3413.69 -3413.69,3413.69 -1885.1,0 -3413.43,-1528.33 -3413.43,-3413.69 0,-1885.1 1528.33,-3413.43 3413.43,-3413.43z"/>
  <path class="fil1" d="M2869.71 2662.3c0,138 -126.31,251 -234.27,251l-50.2 0c-127.89,0 -242.64,-114.75 -242.64,-242.64 0,-143.3 42.43,-201.65 167.34,-267.73 0,74.61 -9.78,187.19 4.36,255.01 21.99,105.39 181.15,133.58 180.06,-28.75 -1.47,-216.95 -14.82,-733.46 28.13,-883.87 20.44,-71.57 44.8,-122.43 77.53,-181.84 14.42,-26.2 36.51,-56.35 55.43,-78.45 473.12,-552.6 1269.31,-164.96 1269.31,415.88l0 209.18 -1255.05 0 0 552.21zm-359.78 -644.26l0 92.04 -702.82 0c-12.6,54.04 -18.38,141.16 -25.1,200.8l-70.47 623.99c-18.79,137.9 -34.32,275.33 -47.44,412.75 -38.37,401.83 -103.69,842.94 -142.24,1246.67 -14.1,147.65 -91.28,722.29 -91.28,837.47l3965.93 0 -92.26 -828.1c-11.54,-133.68 -31.09,-283.37 -47.52,-412.67l-70.16 -624.29c-18.68,-195.24 -166.57,-1384.77 -166.57,-1456.61l-535.48 0 0 552.21c0,121.68 -115.44,251 -234.27,251 -83.35,0 -146.81,0.37 -220.02,-72.84 -82.52,-82.52 -104.9,-233.07 -35.87,-333.65 40.29,-58.71 69.22,-71.54 130.38,-103.89 0,77.41 -16.46,233.89 13.26,287.94 54.81,99.67 170.8,33.74 170.8,-20.21l0 -778.12c0,-465.58 -445.92,-894.72 -954.45,-854.08 -117.25,9.37 -260.85,39.38 -355.73,96.11 -53.49,31.97 -91.07,53.08 -137.46,88.44 -251.23,191.44 -351.25,473.06 -351.25,795.03z"/>
 </g>
</svg>
