<?xml version="1.0" encoding="UTF-8"?>
<!DOCTYPE svg PUBLIC "-//W3C//DTD SVG 1.0//EN" "http://www.w3.org/TR/2001/REC-SVG-20010904/DTD/svg10.dtd">
<!-- Creator: CorelDRAW -->
<svg xmlns="http://www.w3.org/2000/svg" xml:space="preserve" width="218.654mm" height="94.4739mm" version="1.0" style="shape-rendering:geometricPrecision; text-rendering:geometricPrecision; image-rendering:optimizeQuality; fill-rule:evenodd; clip-rule:evenodd"
viewBox="0 0 17648.16 7625.26"
 xmlns:xlink="http://www.w3.org/1999/xlink"
 xmlns:xodm="http://www.corel.com/coreldraw/odm/2003">
 <defs>
  <style type="text/css">
   <![CDATA[
    .fil0 {fill:white;fill-rule:nonzero}
   ]]>
  </style>
 </defs>
 <g id="Camada_x0020_1">
  <metadata id="CorelCorpID_0Corel-Layer"/>
  <path class="fil0" d="M125.15 3433.93l0 -2989.74 845.67 0 0 2319.19 1426.54 0 0 670.55 -2272.2 0zm3720.1 38.44c-253.42,0 -478.36,-51.26 -674.83,-153.77 -196.46,-102.51 -350.94,-244.16 -463.4,-424.97 -112.47,-180.8 -168.71,-387.95 -168.71,-621.43 0,-233.49 56.23,-439.93 168.71,-619.31 112.47,-179.38 266.94,-319.61 463.4,-420.7 196.47,-101.08 421.41,-151.62 674.83,-151.62 253.41,0 479.07,50.54 676.96,151.62 197.89,101.08 352.36,241.32 463.4,420.7 111.05,179.38 166.58,385.82 166.58,619.31 0,233.48 -55.52,440.63 -166.58,621.43 -111.04,180.81 -265.51,322.46 -463.4,424.97 -197.89,102.51 -423.55,153.77 -676.96,153.77zm0 -644.94c93.96,0 177.25,-21.36 249.85,-64.06 72.61,-42.71 130.26,-106.06 172.98,-190.06 42.71,-84 64.07,-184.37 64.07,-301.11 0,-116.74 -21.36,-215.69 -64.07,-296.85 -42.71,-81.15 -100.37,-143.08 -172.98,-185.78 -72.61,-42.71 -155.9,-64.07 -249.85,-64.07 -91.12,0 -172.98,21.36 -245.59,64.07 -72.61,42.71 -130.98,104.64 -175.11,185.78 -44.13,81.16 -66.2,180.1 -66.2,296.85 0,116.74 22.07,217.11 66.2,301.11 44.13,84 102.51,147.35 175.11,190.06 72.6,42.71 154.47,64.06 245.59,64.06zm1550.39 1473.52c-108.2,0 -211.41,-10.68 -309.65,-32.03 -98.24,-21.36 -182.94,-50.54 -254.13,-87.56l205.01 -576.59c74.04,45.55 158.03,68.33 251.99,68.33 71.19,0 128.84,-24.2 172.98,-72.6 44.13,-48.41 66.21,-125.29 66.21,-230.65l0 -2250.85 811.5 0 0 2255.13c0,281.89 -82.57,506.83 -247.72,674.82 -165.15,168 -397.21,251.99 -696.19,251.99zm538.15 -3438.21c-148.06,0 -267.65,-41.28 -358.77,-123.85 -91.12,-82.58 -136.67,-185.08 -136.67,-307.52 0,-122.44 45.55,-224.95 136.67,-307.52 91.12,-82.58 210.71,-123.86 358.77,-123.86 148.07,0 267.66,39.15 358.77,117.45 91.12,78.3 136.68,178.67 136.68,301.11 0,128.13 -44.84,234.2 -134.54,318.19 -89.7,84 -209.99,125.99 -360.91,125.99zm2340.54 2571.18l0 -431.38 -55.52 -106.78 0 -794.42c0,-128.13 -39.15,-227.08 -117.45,-296.84 -78.3,-69.76 -202.87,-104.64 -373.72,-104.64 -111.04,0 -223.52,17.8 -337.41,53.39 -113.89,35.59 -210.71,84.71 -290.43,147.35l-273.35 -550.96c130.98,-85.43 288.3,-151.63 471.95,-198.61 183.65,-46.98 366.6,-70.47 548.83,-70.47 375.85,0 667,86.14 873.43,258.4 206.44,172.27 309.65,442.05 309.65,809.36l0 1285.59 -755.98 0zm-683.36 38.44c-185.08,0 -341.69,-31.32 -469.82,-93.97 -128.13,-62.64 -225.65,-148.07 -292.57,-256.26 -66.91,-108.2 -100.37,-229.22 -100.37,-363.04 0,-142.37 36.3,-265.52 108.91,-369.45 72.61,-103.93 184.36,-183.66 335.27,-239.18 150.92,-55.52 345.96,-83.28 585.14,-83.28l546.7 0 0 422.83 -435.65 0c-130.98,0 -222.81,21.36 -275.49,64.07 -52.67,42.71 -79.01,99.66 -79.01,170.84 0,71.19 27.05,128.13 81.15,170.84 54.1,42.71 128.13,64.06 222.1,64.06 88.27,0 168.71,-22.07 241.32,-66.2 72.6,-44.13 125.99,-111.76 160.16,-202.87l111.05 298.98c-42.71,159.45 -126,279.75 -249.86,360.9 -123.85,81.15 -286.87,121.73 -489.03,121.73zm-3127.8 4081.31l0 -2770.95 925.35 0 0 787.32 -178.93 -230.06c105.66,-201.09 250.51,-351.91 434.56,-452.45 184.05,-100.54 391.96,-150.81 623.72,-150.81 214.72,0 409,43.46 582.82,130.37 173.82,86.91 311,220.69 411.55,401.32 100.54,180.64 150.81,414.11 150.81,700.41l0 1584.85 -971.36 0 0 -1426.37c0,-197.68 -40.05,-341.68 -120.14,-432 -80.09,-90.32 -191.72,-135.48 -334.86,-135.48 -102.26,0 -195.98,23 -281.19,69.02 -85.21,46.01 -151.67,116.74 -199.39,212.16 -47.72,95.43 -71.58,219.84 -71.58,373.21l0 1339.46 -971.36 0zm3558.26 0l0 -3793.43 971.36 0 0 3793.43 -971.36 0zm1600.2 0l0 -2770.95 971.36 0 0 2770.95 -971.36 0zm485.68 -3077.69c-177.23,0 -320.38,-49.42 -429.44,-148.26 -109.07,-98.84 -163.6,-221.54 -163.6,-368.1 0,-146.56 54.54,-269.26 163.6,-368.1 109.06,-98.83 252.21,-148.25 429.44,-148.25 177.23,0 320.38,46.86 429.45,140.59 109.06,93.73 163.6,213.87 163.6,360.43 0,153.37 -53.68,280.33 -161.05,380.88 -107.36,100.54 -251.36,150.82 -432,150.82zm1114.52 3077.69l0 -2770.95 925.35 0 0 787.32 -178.93 -230.06c105.66,-201.09 250.51,-351.91 434.56,-452.45 184.05,-100.54 391.96,-150.81 623.72,-150.81 214.72,0 409,43.46 582.82,130.37 173.82,86.91 311,220.69 411.55,401.32 100.54,180.64 150.81,414.11 150.81,700.41l0 1584.85 -971.36 0 0 -1426.37c0,-197.68 -40.05,-341.68 -120.14,-432 -80.09,-90.32 -191.72,-135.48 -334.86,-135.48 -102.26,0 -195.98,23 -281.19,69.02 -85.21,46.01 -151.67,116.74 -199.39,212.16 -47.72,95.43 -71.58,219.84 -71.58,373.21l0 1339.46 -971.36 0zm5045.98 46.01c-327.2,0 -612.64,-62.21 -856.34,-186.61 -243.69,-124.4 -432.85,-294.82 -567.48,-511.24 -134.63,-216.42 -201.94,-462.68 -201.94,-738.75 0,-276.07 65.61,-522.32 196.83,-738.75 131.22,-216.42 312.71,-385.14 544.48,-506.13 231.76,-121 492.49,-181.49 782.2,-181.49 272.66,0 521.46,55.39 746.42,166.15 224.95,110.77 403.88,273.52 536.81,488.24 132.92,214.72 199.39,475.46 199.39,782.2 0,34.09 -1.7,73.28 -5.12,117.58 -3.41,44.31 -6.81,85.21 -10.22,122.7l-2193.24 0 0 -511.24 1676.88 0 -368.1 143.15c3.41,-126.11 -19.6,-235.17 -69.02,-327.2 -49.42,-92.02 -117.58,-163.6 -204.49,-214.72 -86.91,-51.12 -188.31,-76.69 -304.19,-76.69 -115.88,0 -217.28,25.56 -304.19,76.69 -86.91,51.12 -154.23,123.56 -201.94,217.28 -47.72,93.73 -71.57,203.65 -71.57,329.75l0 148.26c0,136.33 28.11,253.92 84.35,352.76 56.23,98.84 137.18,174.68 242.84,227.51 105.65,52.83 231.76,79.24 378.32,79.24 136.33,0 253.07,-19.6 350.21,-58.79 97.14,-39.19 193.42,-99.7 288.86,-181.49l511.24 531.7c-132.93,146.55 -296.52,258.18 -490.8,334.86 -194.27,76.69 -424.33,115.03 -690.18,115.03zm-14279.06 25.56c-286.3,0 -550.44,-46.01 -792.43,-138.04 -241.99,-92.03 -452.45,-222.4 -631.38,-391.1 -178.93,-168.71 -317.82,-365.54 -416.66,-590.49 -98.84,-224.95 -148.26,-472.05 -148.26,-741.31 0,-269.25 49.42,-516.35 148.26,-741.3 98.84,-224.95 237.73,-421.78 416.66,-590.49 178.93,-168.71 389.4,-299.08 631.38,-391.1 241.99,-92.03 506.13,-138.04 792.43,-138.04 289.7,0 554.7,46.01 794.98,138.04 240.29,92.02 449.05,222.39 626.28,391.1 177.23,168.71 316.12,365.53 416.66,590.49 100.54,224.95 150.82,472.05 150.82,741.3 0,269.26 -50.28,517.21 -150.82,743.86 -100.54,226.66 -239.43,423.48 -416.66,590.49 -177.23,167.01 -385.99,296.52 -626.28,388.55 -240.28,92.02 -505.28,138.04 -794.98,138.04zm0 -838.45c136.33,0 263.29,-23.86 380.88,-71.57 117.58,-47.72 219.84,-116.74 306.75,-207.06 86.91,-90.32 155.07,-198.53 204.49,-324.64 49.42,-126.11 74.13,-265.85 74.13,-419.22 0,-156.78 -24.71,-297.37 -74.13,-421.77 -49.42,-124.4 -117.58,-231.77 -204.49,-322.08 -86.91,-90.32 -189.17,-159.34 -306.75,-207.05 -117.58,-47.72 -244.54,-71.58 -380.88,-71.58 -136.33,0 -263.29,23.86 -380.88,71.58 -117.59,47.72 -219.84,116.74 -306.75,207.05 -86.91,90.32 -155.07,197.68 -204.49,322.08 -49.42,124.4 -74.13,265 -74.13,421.77 0,153.37 24.71,293.12 74.13,419.22 49.42,126.11 117.58,234.32 204.49,324.64 86.91,90.33 189.16,159.34 306.75,207.06 117.58,47.71 244.54,71.57 380.88,71.57z"/>
 </g>
</svg>
